<svg width="271" height="314" viewBox="0 0 271 314" fill="none" xmlns="http://www.w3.org/2000/svg">
<path fill-rule="evenodd" clip-rule="evenodd" d="M96.4766 16.2779C95.4047 11.7629 92.7586 7.56429 89.2227 4.64603C82.0025 -1.31312 69.9494 -1.84941 62.9252 4.84819C57.1587 10.3459 56.9225 19.3169 57.3632 26.7343C57.634 31.2801 58.8982 36.4381 56.0084 39.9516C53.6499 42.8184 49.453 43.2649 45.7574 42.9766C42.0619 42.6883 38.2365 41.9031 34.7286 43.103C30.3851 44.5883 27.443 49.0499 27.0518 53.6332C26.6596 58.2166 28.5308 62.7952 31.4439 66.349C36.6492 72.7031 45.3186 76.0079 53.4202 74.7275C61.5228 73.4471 68.758 67.6303 71.7617 59.9799C73.997 54.2903 74.1464 47.5562 78.1715 42.9616C81.4665 39.201 86.4478 38.1088 90.2162 35.1081C94.0583 32.0485 96.514 27.0282 96.9351 22.1744C97.1059 20.2014 96.9351 18.2106 96.4766 16.2779Z" fill="#422E8F"/>
<path fill-rule="evenodd" clip-rule="evenodd" d="M0.0572886 69.8901C0.201824 68.7627 0.761197 69.1616 1.46135 69.7652C1.02868 68.9035 0.527499 64.4793 2.56132 66.1775C2.29665 65.7335 2.04888 64.6577 2.30979 64.1461C2.71806 63.3407 3.1282 63.9508 3.70165 64.2371C3.28213 62.9605 3.68852 61.972 4.28824 60.8982C4.59703 60.3443 4.88797 59.3427 5.52149 59.0695C6.49288 58.6509 7.07854 60.2335 7.44738 60.855C8.07527 61.9129 8.50794 62.8901 8.12314 64.178C8.68814 63.8767 9.08139 63.2562 9.51218 64.0503C9.7853 64.5554 9.56662 65.6368 9.31321 66.0873C11.302 64.3357 10.92 68.7721 10.5099 69.6451C11.1931 69.0227 11.7412 68.6087 11.9158 69.7324C12.1823 71.4455 11.8229 73.4281 10.7407 74.8023C9.73462 76.078 7.80591 77.3782 6.08086 76.8609C4.3699 77.4242 2.40646 76.1757 1.3675 74.9272C0.248752 73.582 -0.163269 71.6107 0.0572886 69.8901Z" fill="#D25F2E"/>
<path fill-rule="evenodd" clip-rule="evenodd" d="M5.671 80H5.672C5.811 79.9972 5.922 79.89 5.92 79.7604L5.585 60.2312C5.582 60.1016 5.468 59.9982 5.329 60H5.328C5.189 60.0019 5.078 60.1091 5.08 60.2387L5.416 79.7688C5.418 79.8974 5.532 80.0009 5.671 80Z" fill="#2E281F"/>
<path fill-rule="evenodd" clip-rule="evenodd" d="M3.50097 65.0753L3.53079 67.3951C3.5457 68.5602 4.47112 69.4951 5.59334 69.4797L6.48992 69.4673C7.61215 69.4518 8.5137 68.4911 8.49879 67.326L8.46798 65.0072L8.96995 65L8.99977 67.3198C9.01865 68.7717 7.89543 69.9688 6.49688 69.9884L5.5993 69.9998C4.20075 70.0194 3.04771 68.8533 3.02982 67.4024L3 65.0826L3.50097 65.0753Z" fill="#2E281F"/>
<path fill-rule="evenodd" clip-rule="evenodd" d="M2.44661 70.0902L2.47063 71.9372C2.4822 72.8649 3.69748 73.603 5.00884 73.5846L6.05775 73.5708C7.36912 73.5523 8.56483 72.7811 8.55326 71.8535L8.52924 70.0064L8.97585 70L8.99987 71.847C9.015 73.0038 7.6974 73.9628 6.0622 73.9849L5.01418 73.9996C3.37987 74.0217 2.03826 73.0996 2.02313 71.9437L2 70.0966L2.44661 70.0902Z" fill="#2E281F"/>
<path fill-rule="evenodd" clip-rule="evenodd" d="M5.8267 75.9996H5.83665C8.17097 75.9565 9.87605 73.547 9.94747 73.4437C10.0279 73.3285 10.0144 73.1584 9.91764 73.0626C9.8209 72.9667 9.67716 72.9829 9.59669 73.0981C9.58042 73.1207 7.94947 75.4193 5.8267 75.458H5.82128C4.61163 75.4763 3.45984 74.7615 2.39936 73.3317C2.31528 73.2197 2.17153 73.209 2.07751 73.308C1.98258 73.4071 1.97354 73.5783 2.05762 73.6913C3.21031 75.2449 4.47873 76.0211 5.8267 75.9996Z" fill="#2E281F"/>
<path fill-rule="evenodd" clip-rule="evenodd" d="M49.014 66.1981L43.1258 66C43.1159 66.0957 43.1069 66.1896 43.0971 66.2853C44.5042 69.9076 44.5491 73.8504 44.4548 77.5665C44.3793 80.5584 43.7683 83.4811 42.0844 86.1174C41.8157 86.3336 41.9325 89.8431 46.4154 89.9929C51.1274 90.1512 52.8589 87.6267 53 87.6627C48.1173 81.1158 46.1117 73.311 49.014 66.1981Z" fill="#E46F61"/>
<path fill-rule="evenodd" clip-rule="evenodd" d="M51.9106 282C49.2582 282.557 47.3874 285.852 46.2792 289.177C45.171 292.5 44.5036 296.164 42.8614 299.049C41.3124 301.769 39.0512 303.525 37.0538 305.636C35.0555 307.745 33.1809 310.561 33 313.992C39.4492 314.186 45.7451 310.688 51.4393 306.565C52.7637 305.605 54.1537 304.563 54.9162 302.806C55.5256 301.4 55.6531 299.716 55.7664 298.093C55.9692 295.189 56.171 292.237 55.7655 289.373C55.3609 286.507 53.7643 283.471 51.9106 282Z" fill="#FFDCBE"/>
<path fill-rule="evenodd" clip-rule="evenodd" d="M110 228.054C110.756 230.602 114.15 232.169 117.512 232.988C120.873 233.807 124.534 234.169 127.506 235.545C130.307 236.843 132.214 238.913 134.45 240.698C136.684 242.483 139.606 244.092 143 243.996C142.685 237.676 138.744 231.801 134.235 226.562C133.186 225.344 132.05 224.068 130.259 223.463C128.827 222.978 127.159 222.988 125.55 223.006C122.673 223.039 119.75 223.077 116.959 223.7C114.169 224.323 111.303 226.126 110 228.054Z" fill="#FFDCBE"/>
<path fill-rule="evenodd" clip-rule="evenodd" d="M78.4893 166.087C71.7614 161.007 62.6328 160.427 54.2484 161.382C49.8866 161.877 45.4198 162.792 41.8248 165.304C37.4939 168.331 34.9282 173.382 33.8342 178.541C32.7402 183.702 32.9586 189.038 33.1827 194.308C34.4801 224.694 35.8553 255.191 41.2773 285.12C46.3207 287.851 52.337 287.084 57.985 286.069C60.3867 264.192 61.596 242.523 62.5765 220.536C64.8816 228.783 69.1713 236.083 74.1846 243.032C75.8889 245.394 77.789 247.702 80.291 249.2C85.1956 252.137 91.436 251.438 96.9687 249.989C106.044 247.612 114.555 243.511 123 239.435C122.963 233.155 120.244 227.153 115.571 222.945C106.388 222.774 97.0512 224.502 88.1757 226.855C91.5879 215.105 92.4044 202.94 89.9361 190.957C88.3885 183.448 84.6181 170.714 78.4893 166.087Z" fill="#623F8E"/>
<path fill-rule="evenodd" clip-rule="evenodd" d="M89.2872 57.607C84.4935 63.8311 79.5339 75.6057 71.5666 77.6689C66.8253 78.8958 62.1722 79.5293 57.5649 81.3701C50.8597 84.05 44.6333 87.9288 39.2999 92.7886C33.9196 97.6906 29.3667 104.093 22.4122 106.948C22.742 103.668 21.226 101.275 18.9537 98.8801C18.1516 98.0354 17.2221 97.3121 16.4903 96.4058C14.0073 93.3297 13.6306 88.1222 9.83571 86.9934C7.53161 86.3066 5.01669 87.7166 3.6674 89.7013C2.31811 91.687 1.87116 94.1286 1.45607 96.4917C1.08126 98.6194 0.711147 100.84 1.33519 102.909C2.39495 106.421 6.1158 108.819 6.6096 112.453C6.93474 114.84 5.75973 117.201 5.83469 119.609C5.94713 123.245 8.81156 126.162 11.6882 128.399C13.3111 129.662 15.0867 130.873 17.1247 131.163C20.5045 131.645 23.6781 129.502 26.1893 127.194C28.7004 124.887 31.1067 122.211 34.3768 121.205C37.9665 120.105 38.3235 124.958 37.5898 127.255C36.3399 131.168 31.9312 133.857 32.2442 138.33C32.3951 140.49 33.6909 142.465 33.7265 144.629C33.8053 149.434 28.1664 152.047 25.6139 156.122C23.9311 158.81 23.6659 162.33 24.9271 165.238C26.1893 168.145 28.9431 170.362 32.0605 170.979C32.0605 172.818 32.128 174.029 32.128 175.867C35.9257 177.339 40.9021 176.847 44.9584 177.224C51.7695 177.859 58.6631 178.481 65.4255 177.453C72.1888 176.425 78.9146 173.566 83.2829 168.316C83.1114 165.618 83.1808 163.264 82.6401 160.616C83.817 157.847 84.6266 155.773 84.9958 152.789C85.364 149.805 84.8102 146.573 82.8388 144.298C80.6443 141.766 78.2399 140.236 78.998 136.414C79.4112 134.332 80.5562 132.48 81.6328 130.649C86.598 122.208 80.7502 117.241 80.1008 108.786C79.8722 105.807 80.8401 102.816 82.4443 100.294C84.8355 96.5366 88.5976 94.1454 91.6822 91.0301C94.6938 87.9886 97.1459 84.5331 98.8766 80.6142C101.231 75.2824 104.209 69.66 109.119 66.2634C111.419 64.6721 114.2 63.4013 115.641 60.8765C116.612 59.1759 116.789 57.1557 117.275 55.2598C118.001 52.4275 119.446 49.7906 119.893 46.9023C120.34 44.0131 119.411 40.567 116.727 39.3925C114.082 38.2347 110.972 39.8036 109.037 41.9434C107.103 44.0823 105.854 46.7753 103.863 48.8618C99.7817 53.1386 93.2723 52.5845 89.5355 57.2893C89.4531 57.393 89.3706 57.4995 89.2872 57.607Z" fill="#ECA264"/>
<path fill-rule="evenodd" clip-rule="evenodd" d="M1.00586 83.1918C1.09429 85.6892 2.05868 88.4294 4.3179 89.4979C5.31672 89.9708 6.4589 90.0583 7.56012 89.9689C7.85242 89.9456 8.15681 89.9056 8.39884 89.7409C8.63621 89.578 8.78422 89.3164 8.91733 89.0614C9.51681 87.9128 10.0065 86.6637 9.99994 85.368C9.99528 84.0714 9.41069 82.7181 8.2862 82.074C7.82263 81.8078 7.25666 81.643 6.97367 81.1897C6.45983 80.366 7.20825 79.129 6.60412 78.3694C6.55106 78.3033 9.35484 76.3226 7.91106 75.148C7.33764 74.6817 5.28321 75.4375 4.69956 75.7632C2.09684 77.2153 0.905326 80.3641 1.00586 83.1918Z" fill="#E46F61"/>
<path fill-rule="evenodd" clip-rule="evenodd" d="M126.904 36.2993C126.399 35.4868 122.906 37.8737 122.906 37.8737C122.906 37.8737 127.257 34.4833 126.988 33.8042C126.564 32.7312 121.68 36.6633 121.68 36.6633C121.68 36.6633 126.885 32.2515 125.917 31.4154C124.95 30.5784 120.309 35.5131 120.309 35.5131C120.309 35.5131 124.379 30.6094 123.426 30.0357C122.472 29.462 117.471 35.9843 117.471 35.9843C117.471 35.9843 117.273 31.8734 116.409 31.8584C114.953 31.8339 115 40.5851 115 40.5851L118.461 44C118.461 44 127.408 37.1119 126.904 36.2993Z" fill="#E46F61"/>
<path fill-rule="evenodd" clip-rule="evenodd" d="M44.8673 70.185C41.7191 70.7458 38.5126 69.8977 35.3343 69.531C32.156 69.1652 28.5689 69.4284 26.3373 71.677C24.003 74.0299 23.938 77.6946 24.02 80.9768C24.1076 84.4761 24.2234 88.0946 25.7466 91.2614C28.3833 96.7414 34.8115 99.6883 40.9825 99.9719C47.1544 100.255 53.1888 98.346 59.0462 96.4199C65.4875 94.3025 72.4065 91.763 76.0153 86.1196C80.4304 79.2142 77.1033 66.5231 69.7482 62.3817C60.3094 57.0681 53.2623 68.6885 44.8673 70.185Z" fill="#54BE9F"/>
<path fill-rule="evenodd" clip-rule="evenodd" d="M36.1033 60.7413C36.1362 61.2533 36.1527 61.7644 36.1692 62.2765C36.2442 64.1933 36.2524 66.1102 36.2853 68.0271C36.2853 68.1574 36.2945 68.2868 36.3109 68.4171C36.4435 69.5789 37.0645 70.6501 38.034 71.5356C38.258 71.7472 38.515 71.9422 38.7803 72.1289C40.4713 73.323 42.883 74.0458 45.5271 73.9977L47.102 73.9645C49.489 73.9238 51.8092 73.2094 53.525 71.6012C53.7079 71.4385 53.8734 71.2675 54.039 71.0808C54.2054 70.8858 54.3627 70.6991 54.5036 70.4958C54.7688 70.1307 54.9846 69.7573 55.1584 69.3756C55.291 69.1159 55.3989 68.8478 55.4895 68.5715C55.5562 68.3765 55.6148 68.1815 55.6642 67.9865C55.9541 66.8653 56.0199 65.6962 55.9952 64.502V64.039C55.9706 63.1379 55.9129 62.2275 55.8956 61.3263C55.8873 60.952 55.8791 60.5869 55.8873 60.2209C55.9212 57.8743 55.7886 55.1607 53.9649 53.3335C53.7829 53.1551 53.5918 52.9841 53.3851 52.8297C51.5532 51.4083 48.9503 50.9618 46.6876 51.0025L45.1128 51.0349C44.9298 51.0349 44.7396 51.0432 44.5494 51.0589C44.3582 51.0672 44.168 51.0838 43.9769 51.1079C43.7866 51.1245 43.5882 51.1485 43.397 51.1809C43.0074 51.2382 42.6178 51.3112 42.2364 51.3999C40.1238 51.9037 38.109 52.9601 36.9319 54.7143C36.3932 55.5017 36.1527 56.4121 36.053 57.3539C35.9378 58.4834 36.0365 59.6608 36.1033 60.7413Z" fill="#E46F61"/>
<path fill-rule="evenodd" clip-rule="evenodd" d="M48 67C47.7845 68.6882 46.3092 70 44.5 70C42.6908 70 41.2155 68.6882 41 67H48Z" fill="#FFFFFE"/>
<path fill-rule="evenodd" clip-rule="evenodd" d="M34.8394 65C34.6169 62.2265 34.8908 59.4152 35.6442 56.735C37.6922 60.9714 42.8201 63.5112 47.4815 62.5987C49.4089 62.221 51.2251 61.3251 53.1833 61.1561C55.0528 60.9954 56.997 61.5024 58.7814 60.9289C61.3986 60.0866 62.797 56.6999 61.522 54.2893C60.4564 52.275 58.1252 51.3136 55.9754 50.5064C51.8411 48.9529 47.4273 47.3736 43.0949 48.252C39.5382 48.9733 36.5153 51.2803 34 53.8673" fill="#422E8F"/>
<path fill-rule="evenodd" clip-rule="evenodd" d="M37.7153 309.933C40.7334 308.242 43.7514 306.55 46.7686 304.858C47.3012 304.56 46.8186 303.767 46.285 304.066C43.267 305.759 40.2489 307.45 37.2308 309.142C36.6991 309.441 37.1817 310.233 37.7153 309.933Z" fill="#682D24"/>
<path fill-rule="evenodd" clip-rule="evenodd" d="M128.149 224.827C131.991 228.504 134.966 232.803 137.007 237.678C137.246 238.248 138.203 237.999 137.961 237.419C135.853 232.382 132.817 227.939 128.848 224.14C128.391 223.703 127.692 224.39 128.149 224.827Z" fill="#682D24"/>
<path fill-rule="evenodd" clip-rule="evenodd" d="M42.7347 95.9418C47.7624 93.3881 52.1621 90.0018 55.8747 85.8249C56.283 85.3665 55.5978 84.6931 55.1875 85.1552C51.5285 89.2707 47.1982 92.6067 42.2437 95.1229C41.6889 95.4056 42.1799 96.2236 42.7347 95.9418Z" fill="#682D24"/>
<path fill-rule="evenodd" clip-rule="evenodd" d="M50.6483 90.1008C47.0729 89.3175 43.7756 87.9803 40.7202 86.0777C40.1926 85.7499 39.6992 86.5447 40.2239 86.8708C43.3438 88.8133 46.737 90.1859 50.3874 90.9861C51.0022 91.1208 51.2651 90.2355 50.6483 90.1008Z" fill="#682D24"/>
<path fill-rule="evenodd" clip-rule="evenodd" d="M38.9289 124.804C37.3702 120.846 36.0721 116.817 35.0276 112.706C34.7141 111.469 32.719 111.993 33.0335 113.233C34.076 117.344 35.3751 121.371 36.9338 125.331C37.3991 126.511 39.3992 126 38.9289 124.804Z" fill="#E0863B"/>
<path fill-rule="evenodd" clip-rule="evenodd" d="M39.742 124.366C37.004 121.408 34.011 118.694 30.7618 116.226C29.7677 115.47 28.3381 116.789 29.3419 117.552C32.5901 120.02 35.5831 122.734 38.3211 125.692C39.1678 126.608 40.5839 125.276 39.742 124.366Z" fill="#E0863B"/>
<path fill-rule="evenodd" clip-rule="evenodd" d="M79.3604 134.282C75.942 137.701 71.9754 140.367 67.5033 142.282C66.3707 142.766 67.3491 144.394 68.4743 143.912C73.095 141.934 77.1945 139.145 80.7216 135.617C81.5895 134.749 80.2292 133.413 79.3604 134.282Z" fill="#E0863B"/>
<path fill-rule="evenodd" clip-rule="evenodd" d="M79.1463 134.699C77.8327 139.196 75.5128 143.1 72.2916 146.306C71.4074 147.186 72.7337 148.602 73.6161 147.723C77.0697 144.287 79.545 140.049 80.9527 135.232C81.3134 133.998 79.5052 133.469 79.1463 134.699Z" fill="#E0863B"/>
<path fill-rule="evenodd" clip-rule="evenodd" d="M32.6981 170.108C36.5479 171.285 40.4445 171.297 44.3001 170.146C45.5273 169.779 45.0064 167.714 43.7744 168.081C40.2438 169.135 36.7496 169.122 33.2247 168.045C31.9966 167.67 31.4719 169.734 32.6981 170.108Z" fill="#E0863B"/>
<path fill-rule="evenodd" clip-rule="evenodd" d="M40 168.885C40 170.962 40 173.038 40 175.115C40 176.294 42 176.296 42 175.115C42 173.038 42 170.962 42 168.885C42 167.706 40 167.704 40 168.885Z" fill="#E0863B"/>
<path fill-rule="evenodd" clip-rule="evenodd" d="M45 169.885C45 171.961 45 174.039 45 176.115C45 177.294 47 177.296 47 176.115C47 174.039 47 171.961 47 169.885C47 168.706 45 168.705 45 169.885Z" fill="#E0863B"/>
<path fill-rule="evenodd" clip-rule="evenodd" d="M51.7091 167.965C51.4754 169.988 51.2406 172.012 51.007 174.036C50.8582 175.326 53.1421 175.317 53.2909 174.036C53.5246 172.012 53.7583 169.988 53.993 167.965C54.1418 166.674 51.8568 166.683 51.7091 167.965Z" fill="#E0863B"/>
<path fill-rule="evenodd" clip-rule="evenodd" d="M62 165.898C62 167.633 62 169.367 62 171.102C62 172.298 64 172.3 64 171.102C64 169.367 64 167.633 64 165.898C64 164.702 62 164.699 62 165.898Z" fill="#E0863B"/>
<path fill-rule="evenodd" clip-rule="evenodd" d="M72.5462 158.159C68.2573 160.864 63.6668 162.853 58.701 164.144C57.4718 164.463 57.9936 166.283 59.2285 165.962C64.3446 164.632 69.1266 162.575 73.5476 159.788C74.6064 159.121 73.6136 157.486 72.5462 158.159Z" fill="#E0863B"/>
<path fill-rule="evenodd" clip-rule="evenodd" d="M67 162.972C67 165.657 67 168.342 67 171.028C67 172.323 69 172.325 69 171.028C69 168.342 69 165.657 69 162.972C69 161.677 67 161.675 67 162.972Z" fill="#E0863B"/>
<path fill-rule="evenodd" clip-rule="evenodd" d="M81.0111 93.9399C81.7376 100.903 76.8829 109.388 74.1001 115.499C73.5808 116.639 75.2254 117.639 75.7475 116.493C78.7449 109.91 83.6963 101.396 82.9182 93.9399C82.7883 92.6934 80.8794 92.6801 81.0111 93.9399Z" fill="#E0863B"/>
<path fill-rule="evenodd" clip-rule="evenodd" d="M49.2964 208.626C54.6447 213.661 59.993 218.696 65.3422 223.731C66.2421 224.579 67.6068 223.225 66.7032 222.375C61.3549 217.34 56.0066 212.304 50.6583 207.269C49.7575 206.421 48.3937 207.775 49.2964 208.626Z" fill="#532D83"/>
<path fill-rule="evenodd" clip-rule="evenodd" d="M77.1439 233.488C78.1556 234.83 79.1672 236.171 80.1789 237.513C80.5015 237.94 81.0106 238.157 81.5084 237.868C81.9191 237.63 82.176 236.935 81.8563 236.512C80.8446 235.17 79.832 233.829 78.8203 232.487C78.4987 232.059 77.9896 231.843 77.4918 232.131C77.0801 232.371 76.8242 233.065 77.1439 233.488Z" fill="#532D83"/>
<path fill-rule="evenodd" clip-rule="evenodd" d="M89.9414 243C90.9808 243 92.0202 243 93.0586 243C94.3124 243 94.3152 241 93.0586 241C92.0202 241 90.9808 241 89.9414 241C88.6876 241 88.6848 243 89.9414 243Z" fill="#532D83"/>
<path fill-rule="evenodd" clip-rule="evenodd" d="M41.0002 248.951C40.9932 251.413 41.1449 253.849 41.428 256.287C41.5735 257.536 43.1352 257.005 42.9905 255.763C42.7286 253.503 42.6144 251.232 42.6206 248.951C42.6238 247.684 41.0041 247.683 41.0002 248.951Z" fill="#532D83"/>
<path fill-rule="evenodd" clip-rule="evenodd" d="M197.377 60.0614C196.784 47.6642 213.626 36.2587 231.374 37.0377C249.123 37.8158 263.783 50.603 260.969 62.851C259.776 68.0448 255.955 73.1826 257.635 78.3102C258.877 82.0981 262.903 85.0817 265.843 88.3806C271.888 95.1661 273.153 104.412 266.751 111.035C261.929 116.023 253.272 118.929 244.648 118.999C236.643 119.063 228.651 116.785 223.002 112.827C218.179 109.449 215.165 105.047 212.241 100.737C205.042 90.1281 197.816 79.469 193 68.2221" fill="#ECA264"/>
<path fill-rule="evenodd" clip-rule="evenodd" d="M161.534 300.434C156.685 300.315 151.909 303.333 150 307.723C155.248 307.813 160.496 307.904 165.744 307.995C166.736 308.011 167.771 308.019 168.662 307.589C170.119 306.885 170.787 305.236 171.301 303.721C174.021 295.715 176.567 286.929 177 278.491C165.212 274.811 163.989 292.766 161.534 300.434Z" fill="#ECA264"/>
<path fill-rule="evenodd" clip-rule="evenodd" d="M259.225 276.807C257.012 281.014 257.761 286.477 261.034 290C263.393 285.429 265.754 280.86 268.113 276.289C268.559 275.426 269.016 274.52 269 273.556C268.974 271.982 267.722 270.703 266.531 269.614C260.231 263.859 253.128 257.929 245.434 254C236.885 262.802 253.126 271.427 259.225 276.807Z" fill="#ECA264"/>
<path fill-rule="evenodd" clip-rule="evenodd" d="M181.09 40.5214C181.527 42.8006 182.777 44.5644 184.448 45.6735C184.873 45.9557 185.324 46.1981 185.798 46.3908C187.227 46.9763 188.84 47.1552 190.466 46.8601L190.666 46.8233C194.777 46.0783 197.506 41.9782 196.921 37.5637C196.902 37.3848 196.872 37.2087 196.837 37.0271L194.93 27.0916C194.898 26.9201 194.862 26.7551 194.82 26.5901C193.735 22.2558 189.66 19.3709 185.541 20.1177L185.341 20.1536C181.057 20.9309 178.279 25.338 179.164 29.9507L180.638 38.0468L181.09 40.5214Z" fill="#E46D5E"/>
<path fill-rule="evenodd" clip-rule="evenodd" d="M184.666 49.2102L184.774 49.1224C185.906 48.1623 186.884 47.2023 186.039 44.7093C187.81 45.0835 189.789 44.6224 191.315 43.6808C192.84 42.7402 193.971 41.1952 194.403 39.4608C194.963 37.2219 194.373 34.9184 193.866 32.7164C193.698 31.9827 192.958 30.1005 193.326 29.4056C193.777 28.5537 194.967 29.2319 195.445 29.7291C195.522 29.8076 195.587 29.8917 195.651 29.9767C195.74 30.3158 195.809 30.6568 195.872 30.9987C195.805 31.8765 195.761 32.758 195.97 33.694C196.605 36.5298 198.472 39.7593 201.349 40.942C201.563 41.0668 201.779 41.1878 202 41.3024C201.549 43.0497 201.014 44.7749 200.387 46.4649C199.588 48.6169 198.573 50.8133 196.716 52.1716C195.39 53.1419 193.745 53.5965 192.109 53.8367C190.355 54.0945 188.496 54.1149 186.866 53.3914C185.416 52.7473 184.204 51.3955 184 49.8634C184.223 49.6565 184.448 49.4375 184.666 49.2102Z" fill="#E46D5E"/>
<path fill-rule="evenodd" clip-rule="evenodd" d="M193.078 28.9728C193.42 30.8883 194.781 32.2287 196.118 31.9675C197.455 31.7071 198.263 29.9425 197.922 28.0279C197.58 26.1124 196.219 24.772 194.881 25.0323C193.544 25.2936 192.737 27.0582 193.078 28.9728Z" fill="#E46F60"/>
<path fill-rule="evenodd" clip-rule="evenodd" d="M168.945 66.1972C165.485 70.9879 164.107 76.9833 164.006 82.8512C163.906 88.7201 165 94.5373 166.09 100.309C167.939 110.11 169.79 119.913 171.64 129.715C172.112 132.216 172.787 135.016 175.012 136.324C178.013 138.087 181.797 136.08 184.567 133.986C189.603 130.184 194.402 125.716 196.837 119.959C198.718 115.516 199.062 110.596 198.992 105.786C198.889 98.8265 197.968 91.902 196.782 85.0394C195.456 77.3667 194.133 65.2765 187.756 59.8558C181.826 54.8139 172.628 61.0971 168.945 66.1972Z" fill="#1F79B4"/>
<path fill-rule="evenodd" clip-rule="evenodd" d="M146.722 101.732C146.156 103.247 144.973 105.123 143.406 104.627C142.938 104.479 142.569 104.13 142.218 103.791C136.995 98.7538 131.774 93.7155 126.551 88.6782C122.064 89.8657 119.652 94.9828 120.041 99.5211C120.43 104.059 122.912 108.132 125.331 112.022C128.635 117.335 132.027 122.748 136.893 126.747C141.759 130.747 148.449 133.152 154.555 131.442C160.601 129.748 164.846 124.51 168.2 119.298C175.606 107.785 191.041 81.0077 177.844 68.3188C165.57 56.5162 149.917 93.1808 146.722 101.732Z" fill="#1F79B4"/>
<path fill-rule="evenodd" clip-rule="evenodd" d="M240.687 160.293C241.787 169.876 239.969 179.759 235.519 188.376C231.376 196.397 225.124 203.162 219.454 210.244C201.287 232.938 188.645 259.792 182.85 288C175.816 286.554 165.035 283.657 158 282.211C167.045 248.38 179.509 215.415 195.156 183.947C199.745 174.72 204.876 165.301 213.287 159.127C221.697 152.954 232.367 154.004 240.687 160.293Z" fill="#1F79B4"/>
<path fill-rule="evenodd" clip-rule="evenodd" d="M239.697 124L186.044 142.695C184.028 140.847 183.312 146.028 183.164 148.715C181.852 172.6 188.49 196.556 200.086 217.667C211.682 238.777 228.092 257.158 246.571 273C251.382 269.245 258.189 262.781 261 257.448C234.116 240.344 219.104 204.4 222.374 173.38C229.414 175.486 237.243 171.598 241.494 165.763C245.744 159.927 239.123 131.122 239.697 124Z" fill="#1F79B4"/>
<path fill-rule="evenodd" clip-rule="evenodd" d="M191.248 149.582C197.706 152.642 205.126 153.055 212.308 152.995C220.505 152.927 229.024 152.223 236.123 148.232C243.223 144.241 248.47 136.136 246.629 128.358C245.983 125.625 244.54 123.14 243.579 120.495C239.723 109.888 243.92 98.0395 241.872 86.9651C240.131 77.5511 233.788 69.2288 225.523 64.0572C217.258 58.8856 207.227 56.7228 197.408 57.0282C193.431 57.1505 189.41 57.6782 185.757 59.2134C172.669 64.7137 168.412 81.1959 170.508 94.9242C172.279 106.526 178.297 117.277 179.871 128.824C181.122 138.002 181.176 144.809 191.248 149.582Z" fill="#FFDCBE"/>
<path fill-rule="evenodd" clip-rule="evenodd" d="M201.834 97.2805C203.978 111.466 209.976 124.875 217.706 137.009C217.956 137.4 218.243 137.818 218.69 137.953C219.032 138.056 219.399 137.97 219.746 137.882C229.996 135.287 240.355 131.079 247.097 123.011C247.932 122.012 248.728 120.909 248.94 119.63C249.102 118.649 248.907 117.649 248.708 116.675C245.488 100.907 241.071 85.3789 235.505 70.2657C233.306 64.2928 230.588 57.9708 225.102 54.6652C221.744 52.642 214.758 50.8197 211.033 52.9621C207.598 54.9365 205.772 61.3515 204.551 64.8167C200.9 75.1786 200.199 86.4633 201.834 97.2805Z" fill="#1F79B4"/>
<path fill-rule="evenodd" clip-rule="evenodd" d="M116.096 88.2999C116.6 87.4879 120.094 89.8746 120.094 89.8746C120.094 89.8746 115.743 86.4841 116.012 85.8045C116.435 84.7321 121.319 88.6635 121.319 88.6635C121.319 88.6635 116.116 84.2526 117.082 83.4159C118.05 82.5792 122.692 87.5135 122.692 87.5135C122.692 87.5135 118.621 82.6094 119.574 82.0357C120.527 81.4621 125.529 87.9848 125.529 87.9848C125.529 87.9848 125.727 83.8735 126.59 83.8589C128.047 83.8342 128 92.5857 128 92.5857L124.539 96C124.539 96 115.593 89.1119 116.096 88.2999Z" fill="#E46F61"/>
<path fill-rule="evenodd" clip-rule="evenodd" d="M114.234 82.0961C114.628 80.601 116.065 79.4484 117.671 79.115C119.277 78.7817 120.999 79.1972 122.371 80.0469C122.913 80.3821 123.433 80.8161 123.621 81.3979C123.754 81.8126 123.705 82.2568 123.78 82.6844C124.127 84.668 126.95 85.5842 126.999 87.6334C127.061 90.2423 123.6 90.9072 121.423 90.994C116.582 91.188 113.037 86.6296 114.234 82.0961Z" fill="#E46F61"/>
<path fill-rule="evenodd" clip-rule="evenodd" d="M176.672 50.822C175.98 49.7186 175.695 48.2449 176.438 47.1727C177.607 45.485 180.222 45.8589 182.339 45.8846C187.927 45.9554 192.691 42.3015 197.781 40.0956C200.075 39.1015 202.877 38.4225 205.013 39.6968C207.143 40.9666 207.728 43.6089 208.408 45.9196C209.086 48.2293 210.502 50.8193 213 51.0582C209.479 54.3831 206.423 58.1592 203.941 62.2532C203.643 62.7465 203.308 63.2803 202.751 63.4806C202.525 63.5624 202.281 63.5808 202.04 63.5982C197.496 63.9281 187.219 66.6889 183.502 63.4163C181.93 62.0318 181.782 59.7496 181.223 57.9194C180.385 55.1778 178.803 52.8589 176.672 50.822Z" fill="#FFDCBE"/>
<path fill-rule="evenodd" clip-rule="evenodd" d="M177.024 25.2332C176.868 26.5464 177.471 27.9852 178.679 28.6095C179.47 29.0185 180.414 29.0481 181.307 28.9584C184.489 28.6382 187.479 26.8513 189.194 24.2447C189.025 24.7685 189.217 25.3821 189.658 25.7283C190.926 24.5873 192.194 23.4472 193.462 22.3072C193.722 22.073 194.003 21.7968 194 21.4532C193.997 21.2038 193.844 20.9832 193.696 20.7787C193.05 19.8871 192.032 18.8761 190.989 19.2905C190.697 19.4054 190.452 19.6278 190.144 19.6933C189.742 19.7803 189.341 19.5857 188.958 19.4386C184.902 17.8841 177.573 20.6136 177.024 25.2332Z" fill="#4F3E5A"/>
<path fill-rule="evenodd" clip-rule="evenodd" d="M187.042 47.1653C186.729 47.1968 185.443 48.4872 185.151 48.3752C180.811 46.7158 179.414 40.5551 180.214 36.2307C180.407 36.7875 180.841 37.2639 181.391 37.522C181.779 36.4138 182.787 35.5249 183.972 35.2464C185.158 34.968 186.48 35.3103 187.359 36.1215C189.121 34.561 190.518 32.624 191.419 30.4918C191.591 30.0821 191.756 29.6519 192.082 29.3402C192.409 29.0285 192.956 28.8758 193.339 29.1228C193.578 29.2773 193.7 29.5474 193.807 29.8046C195.075 32.8414 195.814 36.0808 195.986 39.348C196.076 41.0454 195.719 42.7058 195.19 44.3274C193.732 48.7841 186.962 50.3465 183.996 47.7259" fill="#4F3E5A"/>
<path fill-rule="evenodd" clip-rule="evenodd" d="M187 38C186.926 39.0506 185.935 39.9203 184.643 39.995C183.351 40.0688 182.235 39.3192 182 38.2864L187 38Z" fill="#FFFFFE"/>
<path fill-rule="evenodd" clip-rule="evenodd" d="M227.285 52.6512C218.006 56.9274 212.112 66.301 210.512 76.1385C208.455 88.7872 212.949 100.838 217.7 112.365C219.012 115.546 221.921 117.723 225.531 116.777C228.553 115.987 231.279 112.16 229.978 109.005C224.37 95.4013 215.437 71.9837 233.712 63.5631C241.136 60.1413 234.677 49.2454 227.285 52.6512Z" fill="#E08D48"/>
<path fill-rule="evenodd" clip-rule="evenodd" d="M233.83 63.3828C238.337 65.2197 241.552 68.624 244.595 71.9233C254.111 82.2422 263.9 93.4275 264.929 106.361C265.214 109.942 264.713 113.758 262.137 116.651C258.169 121.106 250.62 122.071 243.914 121.996C237.53 121.925 231.156 121.246 224.96 119.977C223.925 119.765 222.88 119.531 221.974 119.068C218.646 117.366 218.499 113.491 218.735 110.269C224.42 110.618 231.718 110.148 233.55 105.7C235.283 101.491 230.529 97.5932 226.863 94.3348C217.145 85.6967 205.435 51.8098 233.83 63.3828Z" fill="#1F79B4"/>
<path fill-rule="evenodd" clip-rule="evenodd" d="M210.096 107.3C210.6 106.487 214.095 108.874 214.095 108.874C214.095 108.874 209.743 105.483 210.012 104.804C210.436 103.731 215.32 107.663 215.32 107.663C215.32 107.663 210.116 103.252 211.083 102.415C212.05 101.579 216.692 106.513 216.692 106.513C216.692 106.513 212.621 101.609 213.574 101.036C214.527 100.462 219.529 106.985 219.529 106.985C219.529 106.985 219.727 102.874 220.591 102.859C222.047 102.834 222 111.585 222 111.585L218.539 115C218.539 115 209.593 108.112 210.096 107.3Z" fill="#E46F61"/>
<path fill-rule="evenodd" clip-rule="evenodd" d="M115 73C115.41 73.5518 117.048 93 117.048 93H124.559L128 73H115Z" fill="#F2D4B4"/>
<path fill-rule="evenodd" clip-rule="evenodd" d="M125.944 90L128 79H116C116.398 82.6301 116.836 87.1333 117.107 90H125.944Z" fill="#EA8842"/>
<path fill-rule="evenodd" clip-rule="evenodd" d="M128.161 74H115.839C114.828 74 114 73.0999 114 72.001C114 70.9001 114.828 70 115.839 70H128.161C129.172 70 130 70.9001 130 72.001C130 73.0999 129.172 74 128.161 74Z" fill="#652F23"/>
<path fill-rule="evenodd" clip-rule="evenodd" d="M199.171 182.31C194.132 187.272 190.082 192.971 187.109 199.376C186.536 200.611 188.379 201.693 188.956 200.449C191.853 194.208 195.77 188.652 200.683 183.814C201.662 182.85 200.15 181.346 199.171 182.31Z" fill="#105D8F"/>
<path fill-rule="evenodd" clip-rule="evenodd" d="M223 158.989C223.02 165.846 225.929 172.104 231.166 176.722C232.173 177.61 233.675 176.165 232.665 175.274C227.812 170.995 225.138 165.35 225.119 158.989C225.115 157.672 222.995 157.669 223 158.989Z" fill="#105D8F"/>
<path fill-rule="evenodd" clip-rule="evenodd" d="M185.57 53.8225L185.649 53.7138C185.864 53.4172 185.858 52.9695 185.649 52.6729C184.727 51.3576 182.741 52.1277 183.028 53.63C183.2 54.5243 183.865 55.4362 184.282 56.2578C184.824 57.3272 185.368 58.3966 185.91 59.466C186.522 60.6708 188.494 59.6244 187.885 58.4252C187.443 57.5566 187.002 56.688 186.562 55.8185C186.357 55.4178 186.154 55.0171 185.951 54.6164C185.899 54.5133 185.306 53.3721 185.213 53.559C184.985 53.7165 184.758 53.875 184.53 54.0325L184.702 53.9837C184.409 53.9496 184.115 53.9146 183.821 53.8805L183.675 53.7138C183.675 53.3665 183.675 53.0202 183.675 52.6729L183.595 52.7816C182.788 53.8962 184.768 54.9305 185.57 53.8225Z" fill="#EAB985"/>
<path fill-rule="evenodd" clip-rule="evenodd" d="M191 53.0605C191.008 55.626 192.1 58.0149 194.061 59.7128C195.134 60.6431 196.719 59.0962 195.639 58.161C194.097 56.8268 193.238 55.0897 193.232 53.0605C193.227 51.648 190.996 51.645 191 53.0605Z" fill="#EAB985"/>
<path fill-rule="evenodd" clip-rule="evenodd" d="M200.011 49.9734C200.289 51.9914 200.566 54.0093 200.844 56.0273C201.022 57.3155 203.169 57.3329 202.989 56.0273C202.711 54.0093 202.434 51.9914 202.157 49.9734C201.979 48.6842 199.831 48.6669 200.011 49.9734Z" fill="#EAB985"/>
<path fill-rule="evenodd" clip-rule="evenodd" d="M198.988 108.731C196.569 116.209 192.991 123.005 188.243 129.139C187.429 130.19 188.855 131.699 189.676 130.638C194.642 124.222 198.413 117.116 200.941 109.295C201.361 107.999 199.404 107.443 198.988 108.731Z" fill="#EAB985"/>
<path fill-rule="evenodd" clip-rule="evenodd" d="M216.867 59.7263C222.048 55.253 228.233 52.7123 234.974 52.2034C236.337 52.1002 236.347 49.8994 234.974 50.0036C227.637 50.5577 220.996 53.3018 215.357 58.171C214.302 59.0818 215.82 60.6302 216.867 59.7263Z" fill="#652F23"/>
<path fill-rule="evenodd" clip-rule="evenodd" d="M171.922 283.729C170.303 288.388 168.684 293.046 167.065 297.704C166.615 298.999 168.63 299.557 169.077 298.271C170.697 293.613 172.315 288.954 173.935 284.296C174.385 283 172.37 282.443 171.922 283.729Z" fill="#652F23"/>
<path fill-rule="evenodd" clip-rule="evenodd" d="M249.466 264.042C254.008 267.217 258.268 270.769 262.245 274.701C263.202 275.647 264.643 274.127 263.684 273.178C259.58 269.12 255.178 265.457 250.492 262.181C249.396 261.416 248.377 263.281 249.466 264.042Z" fill="#652F23"/>
</svg>
